#define close_width 11
#define close_height 11
static unsigned char close_bits[] = {
   0xf8, 0x00, 0xfc, 0x01, 0xfa, 0x02, 0x77, 0x07, 0xaf, 0x07, 0xdf, 0x07,
   0xaf, 0x07, 0x77, 0x07, 0xfa, 0x02, 0xfc, 0x01, 0xf8, 0x00 };
