#define close_width 11
#define close_height 11
static unsigned char close_bits[] = {
   0x00, 0x00, 0x00, 0x00, 0x04, 0x01, 0x88, 0x00, 0x50, 0x00, 0x20, 0x00,
   0x50, 0x00, 0x88, 0x00, 0x04, 0x01, 0x00, 0x00, 0x00, 0x00 };
