#define max_width 11
#define max_height 11
static unsigned char max_bits[] = {
   0xf8, 0x00, 0xdc, 0x01, 0xde, 0x03, 0xdf, 0x07, 0xdf, 0x07, 0x01, 0x04,
   0xdf, 0x07, 0xdf, 0x07, 0xde, 0x03, 0xdc, 0x01, 0xf8, 0x00 };
