#define max_width 11
#define max_height 11
static unsigned char max_bits[] = {
   0x00, 0x00, 0x20, 0x00, 0x20, 0x00, 0x20, 0x00, 0x20, 0x00, 0xfe, 0x03,
   0x20, 0x00, 0x20, 0x00, 0x20, 0x00, 0x20, 0x00, 0x00, 0x00 };
